DataType=double
version=3
OpenSimVersion=4.5
endheader
time	ground_force_1_vx	ground_force_1_vy	ground_force_1_vz	ground_force_1_px	ground_force_1_py	ground_force_1_pz	ground_moment_1_mx	ground_moment_1_my	ground_moment_1_mz	ground_force_2_vx	ground_force_2_vy	ground_force_2_vz	ground_force_2_px	ground_force_2_py	ground_force_2_pz	ground_moment_2_mx	ground_moment_2_my	ground_moment_2_mz
1	-16.35087905	631.3358708	31.41930213	0.7742922775438107	0	0.4051488684446785	0	2.085925163744423	0	0	0	0	0.8049871033955318	0	0.7420771517268261	0	0	0
1.005	-14.15825977	636.1067549000001	30.98255645	0.7689989193465088	0	0.4056959800672558	0	1.982715373409454	0	0	0	0	0.8049871033955318	0	0.7420771517268261	0	0	0
1.01	-11.93606481	640.7377209	30.5801402	0.7636688481213522	0	0.4062121094358423	0	1.923612317997212	0	0	0	0	0.8049871033955318	0	0.7420771517268261	0	0	0
1.015	-9.737098667	645.335705	30.18411135	0.758483956908536	0	0.4066463592040359	0	1.885030499054903	0	0	0	0	0.8049871033955318	0	0.7420771517268261	0	0	0
1.02	-7.56787854	649.820118	29.9052474	0.7533548626438762	0	0.4070047379824031	0	1.85563836324265	0	0	0	0	0.8049871033955318	0	0.7420771517268261	0	0	0
1.025	-5.332153238	653.926027	29.77952279	0.748123136809401	0	0.4073419217817696	0	1.797536044345214	0	0	0	0	0.8049871033955318	0	0.7420771517268261	0	0	0
1.03	-2.957494834	657.5194873	29.70087403	0.7428535425134103	0	0.4076877018921655	0	1.709439228545647	0	0	0	0	0.8049871033955318	0	0.7420771517268261	0	0	0
1.035	-0.550218617	660.7349107	29.52783291	0.7376898122744024	0	0.4080081565095287	0	1.633668995858908	0	0	0	0	0.8049871033955318	0	0.7420771517268261	0	0	0
1.04	1.781296662	663.67074	29.2546825	0.7325674512626472	0	0.4082869239115147	0	1.578329524513041	0	0	0	0	0.8049871033955318	0	0.7420771517268261	0	0	0
1.045	4.18453878	666.182685	28.99084769	0.727366242149458	0	0.4085607003346853	0	1.499407776194298	0	0	0	0	0.8049871033955318	0	0.7420771517268261	0	0	0
1.05	6.815056042	668.1460742	28.83928432	0.7220581485921401	0	0.40885540319063	0	1.369533803140328	0	0	0	0	0.8049871033955318	0	0.7420771517268261	0	0	0
1.055	9.552865202	669.6892018	28.81222796	0.7166938952206989	0	0.4091516501833664	0	1.218562889000368	0	0	0	0	0.8049871033955318	0	0.7420771517268261	0	0	0
1.06	12.26457118	671.0152251	28.8076858	0.7113381524947007	0	0.4094155818639655	0	1.098816434710683	0	0	0	0	0.8049871033955318	0	0.7420771517268261	0	0	0
1.065	15.08802821	672.0822061	28.77013953	0.7059589381426616	0	0.4096780715257633	0	1.004908297271501	0	0	0	0	0.8049871033955318	0	0.7420771517268261	0	0	0
1.07	18.18928893	672.8074317000001	28.78976065	0.7004220483421777	0	0.4099694083802157	0	0.8950741110244826	0	0	0	0	0.8049871033955318	0	0.7420771517268261	0	0	0
1.075	21.49151254	673.3529453	28.9990668	0.6947493348764635	0	0.4102512615854179	0	0.7680597387569339	0	0	0	0	0.8049871033955318	0	0.7420771517268261	0	0	0
1.08	24.79579945	673.9691693	29.40016704	0.6890795131476052	0	0.4104806199937981	0	0.6507255890098773	0	0	0	0	0.8049871033955318	0	0.7420771517268261	0	0	0
1.085	28.06440679	674.7029042	29.85751474	0.6834342406680227	0	0.4106783500312004	0	0.5622777255610392	0	0	0	0	0.8049871033955318	0	0.7420771517268261	0	0	0
1.09	31.40964374	675.4869227	30.27205599	0.6776479013007242	0	0.4108918891194806	0	0.4815355553658511	0	0	0	0	0.8049871033955318	0	0.7420771517268261	0	0	0
1.095	34.86678897	676.3729123000001	30.69491316	0.6716506638986519	0	0.4111253519323336	0	0.3744168329409741	0	0	0	0	0.8049871033955318	0	0.7420771517268261	0	0	0
1.1	38.31004057	677.5257824	31.22111938	0.6656328259334701	0	0.4113431865399767	0	0.2446700322829072	0	0	0	0	0.8049871033955318	0	0.7420771517268261	0	0	0
1.105	41.60708482	678.9702903	31.81113959	0.6598137492646281	0	0.4115401722582525	0	0.1288350229902706	0	0	0	0	0.8049871033955318	0	0.7420771517268261	0	0	0
1.11	44.76647202	680.5861976	32.31651906	0.6541253023823432	0	0.4117470957811563	0	0.05302132182861286	0	0	0	0	0.8049871033955318	0	0.7420771517268261	0	0	0
1.115	47.92789168	682.2862694	32.65170722	0.6483855280059567	0	0.4119749507781253	0	0.01072836152645262	0	0	0	0	0.8049871033955318	0	0.7420771517268261	0	0	0
1.12	51.19376664	684.0154443	32.86354813	0.6426573113667767	0	0.4122048631590016	0	-0.03169053036821889	0	0	0	0	0.8049871033955318	0	0.7420771517268261	0	0	0
1.125	54.49384678	685.617417	33.04535639	0.6371760385148427	0	0.4124247743810883	0	-0.07989277472323408	0	0	0	0	0.8049871033955318	0	0.7420771517268261	0	0	0
1.13	57.70126049	686.9582948	33.25696683	0.6319022850950976	0	0.4126326955547543	0	-0.113127711397226	0	0	0	0	0.8049871033955318	0	0.7420771517268261	0	0	0
1.135	60.93034991	688.0167272	33.47417025	0.6266045692411071	0	0.4128201680098692	0	-0.1418739602739807	0	0	0	0	0.8049871033955318	0	0.7420771517268261	0	0	0
1.14	64.42128375999999	688.7501981	33.63076187	0.6211811369414773	0	0.4129845807180935	0	-0.1747549628418401	0	0	0	0	0.8049871033955318	0	0.7420771517268261	0	0	0
1.145	68.1414161	689.0263399	33.74276028	0.6157346123405615	0	0.4131351894041859	0	-0.1900535238047727	0	0	0	0	0.8049871033955318	0	0.7420771517268261	0	0	0
1.15	71.86091675	688.7778577	33.93833672	0.6103788169531871	0	0.4132654469468751	0	-0.1792770379351243	0	0	0	0	0.8049871033955318	0	0.7420771517268261	0	0	0
1.155	75.59211510999999	688.021595	34.31636874	0.6051071493128815	0	0.4133634512272718	0	-0.1613382099018823	0	0	0	0	0.8049871033955318	0	0.7420771517268261	0	0	0
1.16	79.54781832	686.7340507	34.80614377	0.5998178004590089	0	0.4134422396769362	0	-0.1574382000525008	0	0	0	0	0.8049871033955318	0	0.7420771517268261	0	0	0
1.165	83.70456003	684.8260992	35.23806158	0.5944160268130838	0	0.4135280596799228	0	-0.1400246091028094	0	0	0	0	0.8049871033955318	0	0.7420771517268261	0	0	0
1.17	87.82126461999999	682.3000383	35.56154981	0.5889658279344141	0	0.4136208450189301	0	-0.06303793343189845	0	0	0	0	0.8049871033955318	0	0.7420771517268261	0	0	0
1.175	91.85005888000001	679.2704355	35.87225222	0.5836743824363277	0	0.4136911435684822	0	0.03437632727434359	0	0	0	0	0.8049871033955318	0	0.7420771517268261	0	0	0
1.18	95.90423232000001	675.7419701	36.23283329	0.5784693617613644	0	0.413743302625409	0	0.09697468674065135	0	0	0	0	0.8049871033955318	0	0.7420771517268261	0	0	0
1.185	100.0155431	671.5541522	36.55416484	0.5730672843786914	0	0.4138400872863437	0	0.1260552104146786	0	0	0	0	0.8049871033955318	0	0.7420771517268261	0	0	0
1.19	104.1470685	666.6903234	36.67187263	0.5674765700310429	0	0.4139968369708933	0	0.1438129460538438	0	0	0	0	0.8049871033955318	0	0.7420771517268261	0	0	0
1.195	108.2770985	661.2822362000001	36.56922107	0.5619811514065379	0	0.4141762679806881	0	0.1611822286240852	0	-0.17649505	15.92854805	-1.661531163	0.9629988163337992	0	0.5379696583887876	0	-0.2425513304080134	0
1.2	112.3611479	655.323275	36.33850031	0.5566281622856007	0	0.4143501230295639	0	0.1506356842104211	0	3.843331458	33.15581986	-0.239216521	0.9499958847588408	0	0.5335520578762287	0	-0.1807901632137772	0
1.205	116.4006026	648.5478193	36.01941334	0.5512325862161185	0	0.4145508567212465	0	0.08224708395553826	0	9.090889494000001	58.20724388	2.835277187	0.9452773473011671	0	0.5333566061355168	0	-0.06173445579770492	0
1.21	120.4601419	640.729654	35.46562647	0.5458039638637919	0	0.4147651490350264	0	-0.005009862107227647	0	14.55559353	91.82018336	7.965922643	0.9433686532360788	0	0.5348833000721174	0	0.09733938784930385	0
1.215	124.483668	631.6516927	34.54419265	0.5405290951249533	0	0.4149658921933329	0	-0.06140977765064193	0	18.56030491	133.0071156	15.0850859	0.9411771261494724	0	0.5363909609047164	0	0.3041727974009474	0
1.22	128.2764615	620.886312	33.28144186	0.5354870340770557	0	0.4151605525011076	0	-0.08499369686962943	0	19.15940113	179.2711211	23.46782653	0.9383642333721012	0	0.5372978723607866	0	0.4671169358456742	0
1.225	131.7092348	607.8243255	31.77540265	0.5306254918977705	0	0.4153735572972621	0	-0.1113639005746645	0	15.17792897	227.6109607	31.86269171	0.9360772044092832	0	0.5379534413083409	0	0.4533362026585372	0
1.23	134.6866369	592.0092835	30.09186671	0.5258938264993607	0	0.4156188690618351	0	-0.2003465532898936	0	6.793864286	275.0811142	38.91146898	0.9349015339587915	0	0.5386727595978953	0	0.3255327592169257	0
1.235	136.936014	573.2978866	28.10810056	0.5213687030245605	0	0.4158340401397961	0	-0.3185288806547044	0	-4.535157857	319.0027569	43.5819444	0.9343923790149539	0	0.5393582641271434	0	0.1277090612523271	0
